<?xml version="1.0" ?>
<!DOCTYPE svg  PUBLIC '-//W3C//DTD SVG 1.1//EN'  'http://www.w3.org/Graphics/SVG/1.1/DTD/svg11.dtd'>
<!-- Uploaded to: SVG Repo, www.svgrepo.com, Generator: SVG Repo Mixer Tools -->
<svg width="800px" height="800px" viewBox="0 0 512 512" version="1.1" xml:space="preserve" xmlns="http://www.w3.org/2000/svg" xmlns:xlink="http://www.w3.org/1999/xlink">
<g id="_x36_04_x2C__Candle_x2C__dark_x2C__light_x2C__lighter_x2C__shine">
<g>
<path d="M137.12,138.2c7.93,0,14.16,6.23,14.16,13.6c0,7.36-6.23,13.59-14.16,13.59    c-7.36,0-13.59-6.23-13.59-13.59C123.53,144.43,129.76,138.2,137.12,138.2z" style="fill:#EF3E5C;"/>
<path d="M142.12,149.2c3.506,0,6.677,1.221,9.127,3.217c0.01-0.206,0.033-0.409,0.033-0.617    c0-7.37-6.23-13.6-14.16-13.6c-7.36,0-13.59,6.23-13.59,13.6c0,4.15,1.981,7.939,5.028,10.457    C128.857,155.127,134.942,149.2,142.12,149.2z" style="fill:#E42A53;"/>
<path d="M377.76,192.57c7.931,0,14.16,6.23,14.16,13.59c0,7.36-6.229,13.59-14.16,13.59    c-7.359,0-13.59-6.23-13.59-13.59C364.17,198.8,370.4,192.57,377.76,192.57z" style="fill:#EF3E5C;"/>
<path d="M382.76,203.57c3.507,0,6.678,1.221,9.127,3.216c0.011-0.209,0.033-0.415,0.033-0.626    c0-7.36-6.229-13.59-14.16-13.59c-7.359,0-13.59,6.23-13.59,13.59c0,4.15,1.981,7.939,5.028,10.457    C369.497,209.498,375.583,203.57,382.76,203.57z" style="fill:#E42A53;"/>
<path d="M256,256v72.49h-53.57c-5.45,0-9.86,4.41-9.86,9.85v26.391v44.52c0,5.01,3.74,9.15,8.59,9.77    c-50.12-1.99-90.14-43.24-90.14-93.85V256H256z" style="fill:#EF3E5C;"/>
<path d="M120.08,335.17V266H256v-10H111.02v69.17c0,26.695,11.139,50.785,29.018,67.883    C127.537,377.102,120.08,357.01,120.08,335.17z" style="fill:#E42A53;"/>
<path d="M400.98,256v69.17c0,50.609-40.021,91.859-90.141,93.85c4.851-0.619,8.59-4.76,8.59-9.77v-70.91    c0-5.439-4.41-9.85-9.859-9.85H256V256H400.98z" style="fill:#EF3E5C;"/>
<g>
<g>
<g>
<polygon points="264.229,266 400.98,266 400.98,256 256,256 256,328.49 264.229,328.49      " style="fill:#DD3A5E;"/>
</g>
</g>
</g>
<path d="M256,333.49c-2.761,0-5-2.238-5-5V256c0-2.761,2.239-5,5-5c2.762,0,5,2.239,5,5v72.49    C261,331.252,258.762,333.49,256,333.49z" style="fill:#FFFFFF;"/>
<path d="M301.31,143.2c-2.762,0-5-2.239-5-5v-27.18c0-2.761,2.238-5,5-5s5,2.239,5,5v27.18    C306.31,140.961,304.071,143.2,301.31,143.2z" style="fill:#FFD15C;"/>
<path d="M210.69,143.2c-2.761,0-5-2.239-5-5V92.9c0-2.761,2.239-5,5-5s5,2.239,5,5v45.3    C215.69,140.961,213.451,143.2,210.69,143.2z" style="fill:#FFD15C;"/>
<path d="M183.51,179.45c-2.761,0-5-2.239-5-5V138.2c0-2.761,2.239-5,5-5s5,2.239,5,5v36.25    C188.51,177.211,186.271,179.45,183.51,179.45z" style="fill:#FFD15C;"/>
<path d="M292.25,208.12c0,26.46-16.26,47.88-36.25,47.88c-20.05,0-36.25-21.42-36.25-47.88    c0-29.59,23.61-44.48,38.18-71.75C270.2,162.35,292.25,182.07,292.25,208.12z" style="fill:#FFD15C;"/>
<path d="M228.81,214.95c0-27.785,20.816-42.61,35.419-66.894c-2.256-3.776-4.396-7.656-6.299-11.687    c-14.57,27.27-38.18,42.16-38.18,71.75c0,20.285,9.526,37.596,23.004,44.576C234.265,243.936,228.81,230.295,228.81,214.95z" style="fill:#E2B34B;"/>
<path d="M192.57,364.73V338.34c0-5.439,4.41-9.85,9.86-9.85H256h53.57c5.449,0,9.859,4.41,9.859,9.85v70.91    c0,5.01-3.739,9.15-8.59,9.77c-1.26,0.051-2.53,0.08-3.8,0.08H204.96c-1.27,0-2.54-0.029-3.8-0.08    c-4.85-0.619-8.59-4.76-8.59-9.77V364.73z" style="fill:#743629;"/>
<path d="M201.631,418.311v-44.52V347.4c0-5.439,4.41-9.85,9.86-9.85h53.569h53.57    c0.257,0,0.509,0.02,0.761,0.037c-0.385-5.086-4.626-9.098-9.821-9.098H256h-53.57c-5.45,0-9.86,4.41-9.86,9.85v26.391v44.52    c0,5.01,3.74,9.15,8.59,9.77c0.167,0.008,0.337,0.006,0.504,0.012C201.647,418.793,201.631,418.553,201.631,418.311z" style="fill:#632C23;"/>
<path d="M279.12,369.73h-81.55c-2.761,0-5-2.238-5-5s2.239-5,5-5h81.55c2.762,0,5,2.238,5,5    S281.882,369.73,279.12,369.73z" style="fill:#632C23;"/>
<path d="M410.04,424.1H101.96c-2.761,0-5-2.238-5-5s2.239-5,5-5h308.08c2.762,0,5,2.238,5,5    S412.802,424.1,410.04,424.1z" style="fill:#FFD15C;"/>
</g>
</g>
<g id="Layer_1"/>
</svg>