<?xml version="1.0" ?>
<!DOCTYPE svg  PUBLIC '-//W3C//DTD SVG 1.1//EN'  'http://www.w3.org/Graphics/SVG/1.1/DTD/svg11.dtd'>
<!-- Uploaded to: SVG Repo, www.svgrepo.com, Generator: SVG Repo Mixer Tools -->
<svg width="800px" height="800px" viewBox="0 0 512 512" version="1.1" xml:space="preserve" xmlns="http://www.w3.org/2000/svg" xmlns:xlink="http://www.w3.org/1999/xlink">
<g id="_x37_00_x2C__candle_x2C__love_x2C__heart_x2C__wedding">
<g>
<path d="M419.184,202.69c0,9.399-4.31,14.1-12.93,18.8c8.62,4.71,12.93,9.41,12.93,18.81    c0,10.4-7.72,18.82-17.239,18.82c-17.25,0-27.07-18.82-44.311-37.63c17.24-18.8,27.061-37.601,44.311-37.601    C411.464,183.89,419.184,192.311,419.184,202.69z" style="fill:#EF3E5C;"/>
<g>
<g>
<g>
<path d="M365.301,229.323c17.24-18.8,27.061-37.6,44.311-37.6c2.651,0,5.153,0.672,7.398,1.839       c-2.945-5.766-8.585-9.673-15.065-9.673c-17.25,0-27.07,18.801-44.311,37.601c10.403,11.35,18.105,22.697,26.368,29.917       C378.338,244.941,372.46,237.134,365.301,229.323z" style="fill:#E42A53;"/>
</g>
</g>
</g>
<path d="M352.304,156.39c6.78,0,12.28,5.03,12.28,11.24c0,11.24-12.28,17.641-24.53,28.88    c-12.26-11.239-24.51-17.64-24.51-28.88c0-6.21,5.49-11.24,12.25-11.24c6.13,0,9.19,2.811,12.26,8.431    C343.114,159.2,346.184,156.39,352.304,156.39z" style="fill:#EF3E5C;"/>
<g>
<g>
<g>
<path d="M325.878,170.07c0-5.465,4.253-10.012,9.879-11.025c-2.051-1.77-4.523-2.655-7.963-2.655       c-6.76,0-12.25,5.03-12.25,11.24c0,11.24,12.25,17.641,24.51,28.88c1.241-1.139,2.482-2.227,3.712-3.276       C334.073,185.22,325.878,179.263,325.878,170.07z" style="fill:#E42A53;"/>
</g>
</g>
</g>
<path d="M256.044,158.84c0,25.37-15.59,45.91-34.76,45.91c-19.23,0-34.761-20.54-34.761-45.91    c0-28.37,22.641-42.66,36.61-68.81C234.903,114.95,256.044,133.86,256.044,158.84z" style="fill:#FFD55E;"/>
<path d="M196.674,173.507c0-27.751,21.658-42.037,35.679-67.122c-3.32-5.233-6.518-10.635-9.219-16.354    c-13.97,26.149-36.61,40.439-36.61,68.81c0,15.549,5.84,29.273,14.783,37.577C198.364,189.675,196.674,181.855,196.674,173.507z" style="fill:#E8BB4D;"/>
<polygon points="156.414,277.24 156.414,241 156.414,204.75 221.284,204.75 283.264,204.75 283.264,349.73     156.414,349.73 156.414,313.49   " style="fill:#FFECB2;"/>
<polygon points="168.928,325.823 168.928,289.573 168.928,253.333 168.928,217.083 233.798,217.083     283.264,217.083 283.264,204.75 221.284,204.75 156.414,204.75 156.414,241 156.414,277.24 156.414,313.49 156.414,349.73     168.928,349.73   " style="fill:#EAD69D;"/>
<path d="M274.204,435.181v32.35h-108.73v-32.35c17,3.34,35.3,5.17,54.36,5.17    C238.903,440.351,257.204,438.521,274.204,435.181z" style="fill:#49BAA5;"/>
<path d="M174.808,440.181c17,3.34,35.3,5.17,54.359,5.17c15.632,0,30.732-1.248,45.037-3.53v-6.64    c-17,3.34-35.301,5.17-54.37,5.17c-19.061,0-37.36-1.83-54.36-5.17v32.35h9.334V440.181z" style="fill:#3AA590;"/>
<path d="M283.264,349.73h99.681c0,39.46-45.391,73.01-108.74,85.45c-17,3.34-35.301,5.17-54.37,5.17    c-19.061,0-37.36-1.83-54.36-5.17c-63.35-12.44-108.74-45.99-108.74-85.45h99.681H283.264z" style="fill:#415A6B;"/>
<path d="M69.863,362.73h99.681h126.85h84.881c1.098-4.245,1.67-8.585,1.67-13h-99.681h-126.85H56.733    c0,18.751,10.255,36.165,27.811,50.616C75.12,388.89,69.863,376.152,69.863,362.73z" style="fill:#314754;"/>
<path d="M414.017,394.98c-2.762,0-5-2.238-5-5s2.238-5,5-5c17.231,0,31.25-14.019,31.25-31.25    c0-17.226-14.019-31.24-31.25-31.24c-17.226,0-31.239,14.015-31.239,31.24c0,2.762-2.238,5-5,5s-5-2.238-5-5    c0-22.74,18.5-41.24,41.239-41.24c22.745,0,41.25,18.5,41.25,41.24C455.267,376.476,436.762,394.98,414.017,394.98z" style="fill:#314754;"/>
<path d="M224.184,68.37c-2.761,0-5-2.239-5-5v-13.9c0-2.761,2.239-5,5-5c2.762,0,5,2.239,5,5v13.9    C229.184,66.131,226.945,68.37,224.184,68.37z" style="fill:#FFD55E;"/>
<path d="M269.688,110.08c-1.494,0-2.972-0.666-3.957-1.938c-1.69-2.183-1.292-5.323,0.892-7.015    l13.58-10.52c2.182-1.692,5.324-1.292,7.015,0.891c1.69,2.184,1.292,5.324-0.892,7.015l-13.58,10.52    C271.835,109.738,270.757,110.08,269.688,110.08z" style="fill:#FFD55E;"/>
<path d="M178.67,110.08c-1.069,0-2.147-0.342-3.059-1.048l-13.58-10.52    c-2.183-1.69-2.582-4.831-0.891-7.015s4.832-2.582,7.015-0.891l13.58,10.52c2.184,1.691,2.582,4.832,0.891,7.015    C181.641,109.414,180.163,110.08,178.67,110.08z" style="fill:#FFD55E;"/>
<path d="M249.081,87.231c-0.671,0-1.354-0.136-2.007-0.423c-2.528-1.11-3.679-4.06-2.568-6.588l4.75-10.82    c1.11-2.528,4.062-3.677,6.588-2.568c2.528,1.109,3.679,4.06,2.568,6.588l-4.75,10.82    C252.839,86.114,251.005,87.231,249.081,87.231z" style="fill:#FFD55E;"/>
<path d="M199.057,87.231c-1.923,0-3.756-1.115-4.579-2.987l-4.761-10.82    c-1.111-2.528,0.036-5.479,2.563-6.591c2.528-1.112,5.478,0.035,6.59,2.563l4.761,10.82c1.111,2.527-0.036,5.479-2.563,6.59    C200.412,87.095,199.729,87.231,199.057,87.231z" style="fill:#FFD55E;"/>
<path d="M252.023,246h-90.609c-2.762,0-5-2.238-5-5c0-2.761,2.238-5,5-5h90.609c2.762,0,5,2.239,5,5    C257.023,243.762,254.785,246,252.023,246z" style="fill:#EAD69D;"/>
<path d="M252.023,282.24h-90.609c-2.762,0-5-2.238-5-5s2.238-5,5-5h90.609c2.762,0,5,2.238,5,5    S254.785,282.24,252.023,282.24z" style="fill:#EAD69D;"/>
<path d="M252.023,318.49h-90.609c-2.762,0-5-2.238-5-5s2.238-5,5-5h90.609c2.762,0,5,2.238,5,5    S254.785,318.49,252.023,318.49z" style="fill:#EAD69D;"/>
<path d="M286.334,377.98H68.863c-2.761,0-5-2.238-5-5s2.239-5,5-5h217.471c2.762,0,5,2.238,5,5    S289.096,377.98,286.334,377.98z" style="fill:#314754;"/>
</g>
</g>
<g id="Layer_1"/>
</svg>